<?xml version="1.0" standalone="no"?>
<!DOCTYPE svg PUBLIC "-//W3C//DTD SVG 20010904//EN"
 "http://www.w3.org/TR/2001/REC-SVG-20010904/DTD/svg10.dtd">
<svg version="1.0" xmlns="http://www.w3.org/2000/svg"
 width="480.000000pt" height="480.000000pt" viewBox="0 0 480.000000 480.000000"
 preserveAspectRatio="xMidYMid meet">
<metadata>
Created by potrace 1.14, written by Peter Selinger 2001-2017
</metadata>
<g transform="translate(0.000000,480.000000) scale(0.100000,-0.100000)"
fill="#000000" stroke="none">
<path d="M2365 4733 c-11 -3 -24 -11 -30 -18 -5 -7 -40 -15 -77 -18 -42 -3
-78 -12 -95 -23 -16 -10 -44 -27 -63 -38 -41 -22 -53 -37 -80 -93 -21 -44 -25
-65 -13 -77 4 -3 17 20 29 52 20 54 61 112 79 112 4 0 20 9 36 21 23 16 58 24
147 34 64 7 101 14 82 15 -19 1 -27 4 -17 7 9 2 17 9 17 14 0 12 97 12 103 -1
3 -6 4 -5 3 2 -3 14 -84 21 -121 11z"/>
<path d="M2815 4670 c28 -3 68 -14 90 -23 40 -17 40 -17 15 2 -28 22 -66 32
-119 30 -31 -2 -29 -3 14 -9z"/>
<path d="M2735 4660 c-3 -5 -2 -10 4 -10 5 0 13 5 16 10 3 6 2 10 -4 10 -5 0
-13 -4 -16 -10z"/>
<path d="M2590 4647 c0 -3 15 -10 32 -16 18 -6 28 -7 23 -2 -12 10 -55 25 -55
18z"/>
<path d="M2720 4611 c0 -6 4 -13 10 -16 6 -3 7 1 4 9 -7 18 -14 21 -14 7z"/>
<path d="M2780 4526 c0 -2 7 -17 15 -32 15 -29 22 -13 9 20 -5 14 -24 23 -24
12z"/>
<path d="M1932 4445 c-6 -14 -16 -25 -21 -25 -19 0 -41 -94 -41 -173 0 -44 2
-78 5 -76 2 3 7 42 9 88 3 46 13 97 21 112 8 16 22 43 31 60 9 16 14 32 12 35
-3 2 -10 -7 -16 -21z"/>
<path d="M3060 4447 c0 -4 7 -18 15 -30 8 -13 19 -47 24 -77 5 -30 9 -44 10
-30 2 45 -11 96 -30 121 -10 13 -19 20 -19 16z"/>
<path d="M2950 4416 c0 -2 7 -7 16 -10 8 -3 12 -2 9 4 -6 10 -25 14 -25 6z"/>
<path d="M2634 4355 c0 -33 -3 -71 -8 -85 -8 -24 -8 -24 8 -5 16 21 19 83 6
125 -5 18 -7 7 -6 -35z"/>
<path d="M2780 4380 c0 -11 5 -20 10 -20 6 0 10 9 10 20 0 11 -4 20 -10 20 -5
0 -10 -9 -10 -20z"/>
<path d="M2075 4369 c-4 -6 -5 -12 -2 -15 2 -3 7 2 10 11 7 17 1 20 -8 4z"/>
<path d="M1912 4338 c-14 -14 -16 -28 -3 -28 9 0 24 30 18 36 -2 2 -9 -2 -15
-8z"/>
<path d="M3005 4340 c3 -5 8 -10 11 -10 2 0 4 5 4 10 0 6 -5 10 -11 10 -5 0
-7 -4 -4 -10z"/>
<path d="M2971 4263 c0 -18 -6 -33 -12 -33 -5 0 -7 -5 -3 -11 11 -18 26 17 21
49 -4 25 -4 24 -6 -5z"/>
<path d="M2702 4260 c0 -14 2 -19 5 -12 2 6 2 18 0 25 -3 6 -5 1 -5 -13z"/>
<path d="M1922 4225 c-1 -22 5 -53 13 -70 l13 -30 1 33 c1 17 -3 32 -8 32 -6
0 -12 17 -14 38 l-4 37 -1 -40z"/>
<path d="M2650 4250 c0 -12 -51 -64 -77 -79 -10 -5 -15 -12 -11 -16 12 -12 98
68 98 91 0 8 -2 14 -5 14 -3 0 -5 -5 -5 -10z"/>
<path d="M3113 4219 c0 -21 3 -39 8 -39 11 0 12 67 2 73 -5 3 -9 -12 -10 -34z"/>
<path d="M2697 4175 c-20 -19 -45 -35 -55 -35 -25 0 -76 -36 -63 -44 16 -10
51 3 80 30 14 13 31 24 38 24 7 0 13 5 13 12 0 6 7 20 17 30 27 30 10 20 -30
-17z"/>
<path d="M2780 4165 c0 -8 5 -15 10 -15 6 0 10 7 10 15 0 8 -4 15 -10 15 -5 0
-10 -7 -10 -15z"/>
<path d="M2640 4159 c0 -5 5 -7 10 -4 6 3 10 8 10 11 0 2 -4 4 -10 4 -5 0 -10
-5 -10 -11z"/>
<path d="M2860 4145 c0 -5 7 -32 15 -59 8 -27 16 -63 16 -80 1 -21 3 -25 6
-11 6 21 -14 120 -28 145 -5 8 -8 11 -9 5z"/>
<path d="M1981 4118 c0 -14 2 -33 5 -42 7 -19 24 -11 24 10 0 8 -4 13 -9 9 -5
-3 -12 7 -14 22 l-4 28 -2 -27z"/>
<path d="M2222 4120 c0 -14 2 -19 5 -12 2 6 2 18 0 25 -3 6 -5 1 -5 -13z"/>
<path d="M3042 4110 c0 -19 2 -27 5 -17 2 9 2 25 0 35 -3 9 -5 1 -5 -18z"/>
<path d="M3142 4080 c0 -19 2 -27 5 -17 2 9 2 25 0 35 -3 9 -5 1 -5 -18z"/>
<path d="M1861 4085 c-2 -39 22 -230 31 -240 4 -5 8 6 7 25 0 42 -36 243 -38
215z"/>
<path d="M1900 4063 c0 -22 2 -25 10 -13 13 20 13 40 0 40 -5 0 -10 -12 -10
-27z"/>
<path d="M2448 4073 c6 -2 18 -2 25 0 6 3 1 5 -13 5 -14 0 -19 -2 -12 -5z"/>
<path d="M2921 4064 c0 -11 3 -14 6 -6 3 7 2 16 -1 19 -3 4 -6 -2 -5 -13z"/>
<path d="M2200 4055 c0 -9 -11 -20 -25 -25 -14 -5 -25 -14 -25 -20 0 -6 14 -2
30 10 25 18 41 50 25 50 -3 0 -5 -7 -5 -15z"/>
<path d="M2394 4056 c-10 -8 -17 -16 -14 -19 8 -8 50 11 50 23 0 14 -13 13
-36 -4z"/>
<path d="M2831 4044 c0 -11 3 -14 6 -6 3 7 2 16 -1 19 -3 4 -6 -2 -5 -13z"/>
<path d="M3101 4004 c0 -11 3 -14 6 -6 3 7 2 16 -1 19 -3 4 -6 -2 -5 -13z"/>
<path d="M1986 3994 c-12 -30 -5 -129 10 -154 l15 -25 -8 30 c-4 17 -8 60 -8
98 0 37 -1 67 -1 67 -1 0 -5 -7 -8 -16z"/>
<path d="M2866 3980 c15 -61 57 -92 46 -34 -3 17 -7 22 -12 14 -6 -9 -13 -4
-24 16 -15 27 -16 27 -10 4z"/>
<path d="M3130 3982 c0 -12 -4 -22 -10 -22 -5 0 -10 -4 -10 -10 0 -5 4 -10 10
-10 11 0 25 48 16 57 -3 4 -6 -3 -6 -15z"/>
<path d="M2015 3967 c-4 -11 -2 -43 5 -75 16 -72 22 -57 11 28 -5 46 -10 60
-16 47z"/>
<path d="M1900 3952 c0 -4 9 -25 20 -47 23 -45 27 -31 6 20 -14 33 -26 45 -26
27z"/>
<path d="M3002 3923 c1 -23 -1 -45 -5 -49 -17 -17 -5 -25 13 -9 23 21 24 30 5
70 l-14 30 1 -42z"/>
<path d="M3081 3938 c-5 -14 -15 -31 -23 -39 -25 -27 -59 -79 -51 -79 16 1 99
128 89 137 -3 3 -10 -5 -15 -19z"/>
<path d="M2215 3925 l-40 -14 45 4 c25 2 68 5 95 5 40 2 45 4 25 10 -37 12
-80 10 -125 -5z"/>
<path d="M2745 3920 c28 -4 62 -10 75 -14 l25 -7 -25 15 c-14 9 -47 15 -75 14
l-50 0 50 -8z"/>
<path d="M2940 3890 c0 -11 -4 -20 -10 -20 -5 0 -7 -13 -4 -30 4 -16 1 -44 -5
-62 -10 -29 -10 -31 2 -18 14 14 34 150 22 150 -3 0 -5 -9 -5 -20z"/>
<path d="M2081 3854 c0 -11 3 -14 6 -6 3 7 2 16 -1 19 -3 4 -6 -2 -5 -13z"/>
<path d="M1950 3843 c0 -4 5 -15 10 -23 8 -13 10 -13 10 2 0 9 -4 20 -10 23
-5 3 -10 3 -10 -2z"/>
<path d="M2245 3843 c-11 -3 -22 -9 -25 -13 -3 -3 -14 -12 -25 -19 -18 -11
-18 -12 8 -8 15 2 27 0 27 -4 0 -5 7 -9 16 -9 8 0 12 -4 9 -10 -10 -17 6 -11
24 8 27 29 55 40 78 31 16 -6 21 -5 17 5 -8 22 -78 31 -129 19z"/>
<path d="M2654 3824 c-18 -15 -18 -15 4 -9 16 5 22 2 22 -9 0 -9 5 -16 10 -16
6 0 9 -5 8 -11 -2 -7 12 -13 32 -14 19 -2 25 -1 13 2 -13 2 -23 8 -23 12 0 14
72 21 94 9 19 -10 20 -10 7 5 -36 44 -129 61 -167 31z"/>
<path d="M2300 3779 c0 -5 5 -7 10 -4 6 3 10 8 10 11 0 2 -4 4 -10 4 -5 0 -10
-5 -10 -11z"/>
<path d="M2500 3780 c0 -5 7 -10 15 -10 8 0 15 5 15 10 0 6 -7 10 -15 10 -8 0
-15 -4 -15 -10z"/>
<path d="M2086 3753 c4 -10 8 -40 10 -68 2 -69 4 -74 15 -40 6 21 4 44 -7 78
-9 26 -18 47 -21 47 -3 0 -2 -8 3 -17z"/>
<path d="M2983 3698 c-1 -11 -16 -35 -32 -52 -32 -33 -38 -46 -21 -46 6 0 10
6 10 14 0 8 8 17 18 20 20 7 46 66 34 78 -4 4 -8 -2 -9 -14z"/>
<path d="M2532 3690 c0 -14 2 -19 5 -12 2 6 2 18 0 25 -3 6 -5 1 -5 -13z"/>
<path d="M2906 3644 c-5 -14 -4 -15 9 -4 17 14 19 20 6 20 -5 0 -12 -7 -15
-16z"/>
<path d="M2072 3566 c7 -8 15 -12 17 -11 5 6 -10 25 -20 25 -5 0 -4 -6 3 -14z"/>
<path d="M2841 3534 c0 -11 3 -14 6 -6 3 7 2 16 -1 19 -3 4 -6 -2 -5 -13z"/>
<path d="M2141 3504 c0 -11 3 -14 6 -6 3 7 2 16 -1 19 -3 4 -6 -2 -5 -13z"/>
<path d="M2171 3445 c-1 -17 111 -130 152 -153 20 -12 37 -18 37 -14 0 4 -15
15 -32 25 -38 20 -103 79 -135 123 -12 16 -22 24 -22 19z"/>
<path d="M2738 3034 c34 -25 27 -31 -37 -33 -32 0 -74 -8 -92 -16 -38 -16 -39
-16 156 4 l70 7 -50 24 c-68 32 -74 34 -47 14z"/>
<path d="M2085 3030 c-11 -4 -51 -17 -90 -29 -92 -28 -104 -36 -78 -49 30 -17
237 -63 348 -78 171 -23 419 -13 635 25 58 11 122 22 144 26 21 3 36 9 33 12
-5 4 -185 -18 -380 -47 -88 -13 -358 -13 -433 1 -198 35 -282 54 -303 67 -24
16 -23 16 45 35 38 11 78 19 89 19 53 1 214 -37 251 -58 30 -18 56 -24 98 -24
55 0 135 24 123 36 -3 4 -24 -1 -47 -10 -51 -20 -82 -20 -128 0 -21 9 -54 23
-74 32 -21 10 -38 23 -38 30 0 6 -4 12 -10 12 -5 0 -10 -6 -10 -14 0 -12 -7
-13 -32 -5 -18 5 -45 9 -60 9 -16 0 -28 5 -28 10 0 12 -27 12 -55 0z"/>
<path d="M1734 2899 c-4 -7 -1 -10 7 -7 8 3 30 -3 49 -14 19 -10 42 -18 50
-18 8 0 28 -7 43 -15 15 -8 45 -17 65 -20 20 -4 71 -17 112 -30 95 -30 231
-45 402 -45 163 0 389 18 443 35 22 7 87 21 145 30 58 10 110 21 115 25 6 4
28 11 49 14 l39 7 -39 24 c-21 14 -43 24 -49 24 -5 0 2 -7 18 -15 39 -21 34
-32 -20 -39 -27 -4 -57 -10 -68 -15 -11 -5 -87 -19 -170 -30 -82 -12 -164 -26
-181 -31 -39 -12 -522 -13 -537 -1 -7 5 -65 19 -129 32 -65 12 -118 27 -118
31 0 5 -12 9 -26 9 -14 0 -59 14 -101 30 -83 34 -89 35 -99 19z"/>
<path d="M1615 2783 c-31 -47 -33 -64 -2 -26 46 57 50 63 39 63 -6 0 -23 -17
-37 -37z"/>
<path d="M1675 2810 c4 -6 11 -10 16 -10 6 0 17 -7 25 -15 20 -20 41 -20 25
-1 -14 17 -75 40 -66 26z"/>
<path d="M3302 2789 c-10 -16 -9 -19 4 -19 36 0 68 -66 37 -76 -10 -3 -33 -13
-51 -21 -18 -8 -42 -15 -52 -16 -11 -1 -20 -6 -20 -11 0 -6 -5 -5 -11 1 -7 7
-18 8 -28 3 -9 -5 -43 -14 -76 -20 -33 -7 -90 -18 -126 -25 -37 -8 -100 -16
-140 -20 -41 -3 -125 -13 -186 -22 -198 -26 -456 -1 -693 70 -113 33 -147 41
-135 29 6 -5 33 -15 60 -22 28 -7 55 -16 60 -20 6 -4 44 -15 85 -24 41 -9 107
-24 145 -34 100 -24 533 -24 649 1 43 9 91 17 108 17 16 0 79 12 140 27 89 21
111 24 118 13 4 -7 6 -19 3 -27 -3 -7 0 -20 6 -27 16 -19 10 -21 -79 -37 -41
-7 -77 -15 -80 -19 -3 -3 -57 -14 -120 -23 -366 -55 -510 -59 -725 -21 -82 14
-163 29 -180 32 -16 2 -32 8 -35 12 -7 10 -150 44 -156 37 -3 -3 10 -8 28 -12
18 -4 47 -13 63 -20 28 -12 199 -56 270 -70 180 -34 490 -21 785 35 58 10 118
19 133 20 16 0 35 7 43 15 22 21 54 19 54 -4 0 -10 3 -32 6 -49 5 -26 3 -31
-17 -35 -20 -4 -19 -4 6 -5 17 -1 68 12 115 28 46 17 92 30 101 30 10 0 21 5
25 11 10 16 -67 4 -143 -23 -35 -12 -65 -19 -69 -16 -3 4 -8 25 -11 47 -5 34
-3 41 11 41 9 0 34 9 54 19 21 11 54 22 73 26 45 8 63 20 54 34 -4 8 -11 9
-18 3 -7 -5 -43 -19 -82 -31 -38 -12 -76 -25 -82 -27 -9 -4 -13 5 -13 30 0 31
4 38 33 49 17 8 47 17 65 20 52 10 66 30 52 72 -6 19 -16 35 -21 35 -5 0 -9 6
-9 14 0 24 -15 26 -28 5z"/>
<path d="M1770 2772 c0 -8 186 -69 240 -79 19 -3 37 -10 40 -14 14 -20 296
-42 465 -36 207 8 394 24 409 36 6 4 34 11 61 15 49 6 226 46 234 53 16 13
-17 10 -80 -6 -98 -25 -238 -51 -275 -51 -17 0 -34 -4 -39 -9 -6 -5 -103 -15
-216 -21 -210 -12 -460 -1 -467 21 -2 5 -20 9 -40 9 -20 0 -75 12 -122 26 -47
14 -113 34 -147 44 -35 10 -63 16 -63 12z"/>
<path d="M3245 2760 c-8 -13 5 -13 25 0 13 8 13 10 -2 10 -9 0 -20 -4 -23 -10z"/>
<path d="M1566 2698 c-8 -13 -20 -44 -27 -70 -6 -27 -15 -48 -20 -48 -5 0 -9
-7 -9 -15 0 -24 17 -17 24 9 4 18 12 23 33 21 16 -2 57 -6 93 -9 43 -4 60 -3
50 3 -7 5 -47 13 -87 17 -82 7 -85 11 -53 74 22 43 19 54 -4 18z"/>
<path d="M1640 2706 c14 -8 34 -15 46 -16 11 0 26 -10 32 -22 26 -53 60 -218
45 -218 -4 0 -26 6 -48 14 -22 8 -74 17 -115 21 -41 3 -83 9 -92 11 -12 4 -18
0 -18 -10 0 -11 17 -15 73 -18 95 -6 189 -27 205 -46 6 -9 13 -27 13 -41 1
-24 2 -24 8 4 5 25 11 31 40 33 19 2 37 -2 41 -8 9 -15 220 -65 355 -85 55 -8
143 -15 195 -15 128 0 382 25 505 49 55 11 123 22 152 26 28 4 60 13 70 21 26
19 5 18 -93 -5 -152 -36 -366 -61 -584 -68 -141 -4 -171 -2 -335 27 -99 17
-189 37 -200 44 -11 7 -46 18 -78 25 l-58 13 4 101 c5 146 7 142 -71 154 -37
6 -78 14 -92 17 l-25 7 25 -15z m147 -127 c2 -84 -9 -93 -21 -16 -3 21 -12 53
-20 71 -17 40 -13 48 17 37 20 -7 22 -16 24 -92z"/>
<path d="M3442 2414 c-6 -7 -31 -18 -55 -24 -23 -5 -66 -17 -94 -25 -29 -9
-55 -15 -57 -13 -2 2 -12 -4 -22 -14 -11 -9 -39 -21 -64 -26 -25 -5 -36 -10
-25 -11 11 0 36 3 56 8 l37 8 6 -54 c3 -30 4 -58 1 -62 -15 -25 -351 -73 -652
-93 -242 -16 -507 13 -701 78 -54 18 -81 19 -64 2 13 -13 74 -31 167 -48 33
-7 65 -15 70 -20 20 -15 245 -35 400 -34 173 0 487 23 495 35 3 4 46 13 95 19
50 7 116 18 148 25 52 12 57 12 58 -3 0 -10 2 -32 5 -50 5 -40 -3 -44 -147
-66 -57 -9 -126 -23 -154 -31 -134 -37 -678 -51 -845 -21 -93 16 -227 49 -275
67 -64 23 -73 21 -81 -24 -9 -50 -11 -56 -14 -59 -1 -2 -4 -14 -5 -28 -15
-142 -30 -230 -41 -230 -6 0 -14 7 -17 15 -12 29 -308 98 -339 79 -22 -14 -1
-23 65 -29 84 -7 230 -34 237 -44 3 -3 14 -11 25 -17 15 -8 21 -23 23 -59 2
-26 -1 -52 -6 -57 -6 -6 -32 -1 -67 11 -56 20 -167 39 -255 44 -34 1 -44 6
-42 17 2 10 0 12 -7 5 -6 -6 -12 -24 -15 -40 -2 -17 -1 -24 1 -17 8 22 148 15
271 -15 l114 -28 -6 -35 c-3 -19 -6 -47 -6 -63 0 -24 -2 -26 -20 -15 -10 7
-22 9 -26 6 -10 -11 6 -28 27 -28 15 0 19 -7 20 -32 1 -25 3 -28 6 -10 4 20 9
23 31 17 15 -4 29 -10 32 -13 3 -4 50 -18 105 -31 55 -14 105 -28 110 -31 6
-4 21 -10 35 -13 43 -11 335 -37 407 -38 111 0 470 30 547 46 118 26 229 47
271 52 22 3 43 10 46 15 4 6 18 11 33 11 14 1 26 6 26 10 0 5 -12 6 -27 3 -16
-3 -46 -8 -68 -11 -22 -4 -49 -10 -60 -15 -24 -11 -215 -44 -375 -65 -251 -34
-593 -30 -760 9 -30 8 -91 22 -135 32 -44 10 -82 22 -86 26 -3 4 -29 12 -59
18 -30 6 -57 14 -61 18 -4 4 -5 31 -2 60 l6 54 31 -6 c17 -4 80 -22 139 -41
60 -19 122 -35 139 -35 16 0 38 -5 49 -11 32 -17 225 -39 344 -39 101 0 357
15 415 25 111 18 300 54 408 77 28 6 52 16 52 21 0 5 -12 7 -27 4 -16 -3 -93
-20 -173 -37 -80 -16 -199 -35 -265 -40 -66 -6 -138 -14 -160 -20 -51 -12
-401 -13 -423 -1 -9 5 -61 14 -115 21 -54 6 -122 18 -150 27 -29 8 -88 24
-132 36 -110 30 -121 39 -117 90 5 66 7 68 39 52 15 -8 61 -22 103 -31 41 -9
89 -22 105 -30 43 -18 72 -24 192 -41 125 -18 523 -29 523 -14 0 5 46 12 103
15 127 9 240 24 292 41 22 7 75 18 118 25 42 7 77 16 77 20 0 4 -10 6 -22 4
-168 -25 -297 -47 -313 -54 -89 -39 -759 -40 -865 -1 -14 5 -70 19 -125 31
-55 12 -113 28 -130 35 -16 8 -42 17 -57 20 -25 6 -28 12 -28 45 0 45 13 57
43 42 12 -6 54 -18 92 -27 39 -9 79 -21 90 -25 11 -5 29 -11 40 -14 39 -11
300 -36 374 -37 161 -2 591 35 591 51 0 4 28 10 63 14 52 5 177 32 240 52 12
4 17 0 17 -12 0 -16 1 -16 13 -2 6 9 38 24 70 33 32 9 70 23 85 31 15 8 34 14
43 14 9 0 36 7 60 15 34 12 44 13 51 3 6 -10 8 -8 8 4 0 29 -17 30 -97 3 -43
-14 -84 -25 -93 -25 -8 0 -32 -9 -53 -20 -20 -11 -46 -20 -57 -20 -17 0 -20 7
-20 43 l0 44 63 17 c34 10 71 23 82 28 37 20 139 37 147 24 4 -6 8 6 8 26 0
20 -4 40 -10 43 -5 3 -10 17 -10 31 0 18 -5 24 -22 24 -23 0 -130 -26 -163
-40 -43 -18 -95 -34 -99 -29 -8 8 -11 188 -3 196 5 4 57 18 115 29 78 16 109
19 114 10 10 -15 8 21 -2 54 -7 23 -8 23 -9 3 -1 -18 -9 -23 -48 -29 -27 -3
-53 -11 -60 -16 -7 -5 -36 -16 -65 -23 -58 -16 -68 -11 -68 36 0 30 31 45 158
75 44 10 72 22 72 30 0 19 -13 24 -28 8z m107 -375 c1 -21 -27 -33 -124 -55
-44 -9 -82 -21 -85 -25 -4 -5 -20 -12 -38 -15 -30 -6 -32 -5 -33 25 -1 17 -2
36 -3 43 -1 7 13 15 29 19 17 4 55 15 85 24 30 9 78 22 105 29 47 11 50 11 57
-9 3 -11 6 -27 7 -36z m-1691 -3 c35 -8 69 -19 75 -24 15 -12 105 -29 210 -38
42 -3 77 -10 77 -16 0 -12 398 -4 515 11 50 6 131 16 180 22 50 6 108 17 130
24 48 15 195 38 201 32 3 -2 8 -53 12 -113 l7 -109 -80 -17 c-319 -69 -540
-97 -785 -97 -170 -1 -345 13 -365 29 -5 4 -33 10 -62 13 -28 3 -96 20 -151
37 l-99 31 4 47 c3 26 8 50 12 54 3 4 42 -4 86 -18 44 -13 112 -31 150 -38 39
-8 90 -20 115 -27 32 -9 130 -13 330 -13 299 0 308 1 665 64 65 12 179 48 155
49 -15 1 -133 -21 -215 -40 -46 -11 -129 -21 -365 -45 -245 -25 -288 -26 -370
-15 -41 5 -118 15 -170 21 -52 6 -129 21 -170 32 -41 11 -105 27 -143 36 l-67
17 6 35 c12 75 14 81 32 76 9 -3 45 -12 80 -20z"/>
<path d="M1450 2373 c0 -5 33 -6 72 -5 77 4 215 -14 234 -29 17 -14 193 -75
239 -83 22 -4 59 -14 83 -22 23 -8 62 -14 85 -14 l42 1 -39 14 c-21 7 -61 17
-90 20 -74 10 -148 30 -140 38 4 4 -4 7 -18 7 -33 0 -131 30 -139 42 -12 19
-124 38 -226 38 -57 0 -103 -3 -103 -7z"/>
<path d="M1437 2286 c-4 -10 -7 -21 -7 -24 0 -4 56 -7 124 -8 95 0 132 -5 160
-18 20 -9 40 -15 45 -11 5 3 12 -1 14 -7 4 -8 6 -7 6 4 1 9 -7 19 -18 23 -45
14 -192 35 -248 35 -39 0 -63 4 -65 12 -3 7 -7 5 -11 -6z"/>
<path d="M3030 2291 c0 -8 -54 -18 -258 -45 -57 -8 -107 -17 -110 -21 -12 -12
161 2 228 18 36 8 98 21 138 27 75 12 97 30 37 30 -19 0 -35 -4 -35 -9z"/>
<path d="M3500 2241 c0 -12 5 -21 10 -21 6 0 10 6 10 14 0 8 -4 18 -10 21 -5
3 -10 -3 -10 -14z"/>
<path d="M1407 2178 c-9 -35 -20 -83 -23 -108 l-6 -45 45 -3 c25 -1 92 -12
148 -22 57 -11 104 -18 106 -16 11 10 -125 45 -199 51 l-87 7 6 32 c11 58 13
59 104 57 46 -1 88 -6 94 -10 5 -5 39 -11 74 -14 61 -5 62 -5 35 10 -18 9 -80
20 -156 26 -139 12 -141 13 -118 71 5 14 6 26 2 26 -4 0 -15 -28 -25 -62z"/>
<path d="M2425 2220 c-206 -5 -214 -6 -130 -14 121 -12 381 0 354 17 -2 1
-103 0 -224 -3z"/>
<path d="M3435 2195 c-101 -27 -121 -33 -145 -43 -14 -6 -19 -11 -11 -11 22
-1 194 39 214 50 14 8 19 4 27 -16 6 -15 10 -31 10 -37 0 -6 3 -9 6 -6 3 3 2
22 -1 42 -8 41 -18 43 -100 21z"/>
<path d="M1372 1970 c0 -14 2 -19 5 -12 2 6 2 18 0 25 -3 6 -5 1 -5 -13z"/>
<path d="M1365 1931 c-12 -11 -2 -16 38 -19 45 -3 216 -28 257 -38 53 -12 -8
16 -67 31 -63 16 -220 34 -228 26z"/>
<path d="M3591 1853 c-1 -17 -16 -29 -63 -52 -35 -17 -82 -36 -105 -43 -24 -7
-43 -16 -43 -20 0 -3 -25 -12 -54 -19 -31 -6 -58 -19 -61 -27 -4 -11 -2 -12 7
-5 7 6 38 16 68 22 30 7 64 18 75 25 11 7 38 19 60 26 22 7 56 21 75 31 43 23
50 24 51 2 0 -10 3 -13 5 -7 2 6 0 28 -5 50 -5 23 -9 30 -10 17z"/>
<path d="M3603 1742 c-6 -11 -32 -25 -57 -32 -25 -7 -51 -19 -57 -26 -6 -8
-22 -14 -35 -14 -12 0 -26 -4 -29 -10 -3 -5 -13 -10 -21 -10 -19 0 -106 -41
-100 -47 7 -7 76 20 76 29 0 4 8 8 18 8 22 0 116 33 134 47 19 15 75 32 82 26
3 -4 6 6 6 20 0 32 -2 33 -17 9z"/>
<path d="M3605 1647 c-11 -7 -24 -17 -30 -24 -5 -6 -35 -19 -65 -29 -30 -10
-57 -20 -60 -24 -7 -10 -132 -43 -155 -42 -14 1 -16 -1 -6 -7 11 -7 11 -10 0
-14 -8 -4 -2 -4 12 -1 14 3 32 7 40 8 8 2 21 6 29 9 8 3 40 13 70 24 30 10 57
21 60 24 3 4 27 14 55 23 27 10 53 23 57 29 6 9 11 8 18 -3 8 -12 10 -9 10 13
0 30 -5 32 -35 14z"/>
<path d="M1266 1559 c-12 -73 -8 -80 50 -84 60 -4 199 -49 221 -70 8 -9 29
-23 46 -31 64 -34 68 -43 61 -133 -4 -44 -11 -81 -15 -81 -4 0 -10 28 -12 63
l-3 62 -2 -63 c-2 -49 1 -64 14 -69 9 -3 20 0 24 7 7 11 24 9 92 -9 46 -12
108 -28 138 -36 126 -34 263 -56 390 -65 224 -15 580 15 830 69 25 5 83 17
130 26 96 19 138 36 75 30 -62 -6 -214 -32 -280 -49 -100 -25 -499 -62 -650
-59 -142 2 -453 43 -480 63 -5 4 -55 18 -110 30 -118 26 -134 38 -128 97 5 38
7 41 26 32 12 -5 49 -15 82 -23 33 -8 80 -22 105 -31 24 -9 80 -21 125 -27 44
-6 89 -14 100 -19 52 -21 231 -29 419 -18 105 6 193 15 194 20 2 5 27 9 55 9
59 0 211 23 295 45 31 8 92 22 135 31 42 9 77 20 77 25 0 13 -24 11 -56 -6
-16 -8 -40 -15 -54 -15 -30 0 -184 -27 -225 -40 -39 -12 -280 -37 -420 -44
-60 -3 -134 -8 -162 -12 -30 -4 -53 -3 -53 3 0 5 -26 10 -57 11 -119 4 -281
25 -318 42 -32 14 -131 40 -157 40 -12 0 -32 7 -42 15 -11 8 -30 15 -43 15
-20 0 -23 5 -24 38 -1 20 -3 29 -6 20 -4 -15 -8 -14 -40 8 -20 13 -41 24 -48
24 -7 0 -15 6 -18 13 -3 7 -23 19 -46 27 -23 7 -46 19 -52 27 -6 7 -26 13 -43
13 -17 0 -55 3 -83 6 -47 6 -53 9 -53 30 0 18 6 24 21 24 22 0 144 -25 194
-40 17 -5 50 -12 75 -15 l45 -6 -55 22 c-56 22 -139 42 -222 54 -38 5 -47 10
-51 28 -2 14 -6 5 -11 -24z"/>
<path d="M1270 1452 c0 -12 19 -26 26 -19 2 2 -2 10 -11 17 -9 8 -15 8 -15 2z"/>
<path d="M1323 1435 c-7 -7 -12 -21 -12 -31 -1 -11 -3 -50 -5 -89 -5 -67 -4
-68 4 -15 4 30 13 75 18 100 12 50 12 53 -5 35z"/>
<path d="M3290 1313 c8 -3 18 -11 22 -17 5 -7 8 -4 8 7 0 11 -7 17 -22 16 -16
0 -18 -2 -8 -6z"/>
<path d="M3321 1254 c0 -11 3 -14 6 -6 3 7 2 16 -1 19 -3 4 -6 -2 -5 -13z"/>
<path d="M3581 1174 c0 -11 3 -14 6 -6 3 7 2 16 -1 19 -3 4 -6 -2 -5 -13z"/>
<path d="M1630 1126 c0 -9 5 -16 10 -16 6 0 10 4 10 9 0 6 -4 13 -10 16 -5 3
-10 -1 -10 -9z"/>
<path d="M3341 1114 c0 -11 3 -14 6 -6 3 7 2 16 -1 19 -3 4 -6 -2 -5 -13z"/>
<path d="M3561 1104 c0 -11 3 -14 6 -6 3 7 2 16 -1 19 -3 4 -6 -2 -5 -13z"/>
<path d="M1340 1075 c0 -14 4 -25 9 -25 5 0 11 -14 15 -32 3 -17 8 -29 11 -26
8 8 -17 108 -27 108 -4 0 -8 -11 -8 -25z"/>
<path d="M1630 1089 c0 -3 -7 -57 -15 -120 -18 -135 -31 -366 -22 -400 7 -27
46 -73 54 -65 3 3 -6 19 -21 36 -21 25 -26 42 -26 85 l0 53 63 -16 c34 -9 64
-20 67 -23 3 -3 43 -14 90 -24 47 -9 103 -21 125 -26 252 -54 578 -52 980 6
136 20 214 35 240 45 11 5 49 14 85 20 36 6 79 18 95 26 l30 14 -30 -5 c-16
-2 -72 -14 -124 -25 -52 -11 -109 -20 -128 -20 -18 0 -33 -4 -33 -8 0 -19
-406 -62 -655 -69 -92 -3 -194 0 -240 6 -44 6 -116 16 -160 22 -104 13 -185
30 -185 39 0 4 -20 10 -44 13 -24 4 -73 16 -110 28 -59 20 -67 25 -62 43 3 12
6 27 6 34 0 17 36 15 105 -8 89 -29 258 -67 360 -81 111 -15 408 -15 575 1
137 12 463 65 496 79 12 5 63 17 113 26 50 10 91 22 91 27 0 6 -7 7 -16 4 -20
-8 -143 -32 -204 -41 -25 -3 -65 -12 -90 -20 -25 -7 -85 -18 -135 -24 -49 -6
-148 -18 -220 -27 -83 -11 -204 -17 -335 -17 -179 0 -224 3 -360 27 -85 15
-169 34 -187 42 -17 8 -36 14 -43 14 -6 0 -42 7 -79 16 l-69 15 5 47 c5 62 10
75 25 66 7 -5 47 -16 88 -25 41 -10 107 -26 145 -37 39 -11 109 -25 155 -31
47 -7 110 -16 140 -21 69 -11 309 -11 415 0 188 19 355 41 420 56 39 8 106 21
150 29 110 18 175 36 175 46 0 13 -33 11 -72 -5 -18 -8 -99 -24 -178 -36 -80
-12 -158 -25 -175 -30 -52 -17 -367 -40 -535 -40 -158 0 -390 21 -440 40 -14
5 -68 19 -120 30 -115 24 -180 50 -180 70 0 8 3 32 6 53 7 42 24 47 77 23 38
-17 174 -51 312 -78 83 -17 142 -20 350 -21 276 0 439 12 620 48 66 13 144 27
173 31 28 4 52 10 52 14 0 5 23 11 51 15 27 4 48 9 45 12 -6 6 -155 -17 -175
-27 -19 -9 -319 -55 -472 -71 -67 -7 -193 -10 -340 -6 -204 5 -248 9 -344 31
-60 14 -123 29 -140 32 -16 3 -43 12 -60 19 -16 7 -51 16 -77 19 -32 5 -53 14
-63 29 -8 12 -15 19 -15 16z"/>
<path d="M3524 986 c-3 -14 -10 -26 -15 -26 -5 0 -9 -10 -9 -22 0 -13 4 -18 9
-12 11 12 32 76 27 82 -3 2 -8 -7 -12 -22z"/>
<path d="M1386 950 c3 -19 12 -48 19 -65 8 -16 28 -68 46 -115 17 -47 35 -89
40 -95 16 -17 10 13 -14 67 -13 29 -30 69 -37 88 -7 19 -19 49 -26 65 -7 17
-17 44 -23 60 l-11 30 6 -35z"/>
<path d="M3481 879 c-8 -19 -24 -57 -37 -86 -13 -28 -24 -58 -24 -65 0 -7 19
27 41 76 22 48 38 93 36 99 -2 6 -9 -5 -16 -24z"/>
<path d="M3371 804 c0 -11 3 -14 6 -6 3 7 2 16 -1 19 -3 4 -6 -2 -5 -13z"/>
<path d="M3390 680 c-8 -5 -11 -12 -7 -16 4 -4 13 -2 19 4 15 15 7 24 -12 12z"/>
<path d="M1501 644 c0 -12 8 -31 19 -44 11 -13 20 -18 20 -13 0 6 -6 16 -14
23 -8 6 -17 21 -19 33 -4 21 -4 21 -6 1z"/>
<path d="M3305 574 l-30 -14 35 6 c19 3 39 10 45 15 14 14 -16 9 -50 -7z"/>
<path d="M1540 562 c0 -12 21 -64 30 -72 3 -3 14 -22 25 -43 11 -21 26 -44 34
-50 8 -7 -7 29 -34 78 -54 101 -55 103 -55 87z"/>
<path d="M3058 535 c-3 -3 -49 -6 -104 -6 -54 -1 -117 -5 -139 -10 -26 -5 14
-7 110 -4 83 2 166 8 185 14 l35 9 -41 1 c-22 1 -43 -1 -46 -4z"/>
<path d="M1768 503 c6 -2 18 -2 25 0 6 3 1 5 -13 5 -14 0 -19 -2 -12 -5z"/>
<path d="M1935 483 c11 -3 26 -10 33 -16 8 -6 98 -11 235 -12 124 -1 149 0 57
2 -90 2 -167 7 -170 12 -3 4 -43 11 -90 14 -47 3 -76 3 -65 0z"/>
<path d="M3227 470 c-3 -11 -1 -20 4 -20 5 0 9 9 9 20 0 11 -2 20 -4 20 -2 0
-6 -9 -9 -20z"/>
<path d="M3205 420 c-3 -5 -1 -10 4 -10 6 0 11 5 11 10 0 6 -2 10 -4 10 -3 0
-8 -4 -11 -10z"/>
<path d="M3342 350 c0 -19 2 -27 5 -17 2 9 2 25 0 35 -3 9 -5 1 -5 -18z"/>
<path d="M1628 340 c-3 -14 -9 -81 -12 -150 l-5 -125 15 115 c14 118 16 211 2
160z"/>
<path d="M3353 245 c0 -38 2 -53 4 -32 2 20 2 52 0 70 -2 17 -4 1 -4 -38z"/>
<path d="M2474 195 c0 -55 1 -76 3 -47 2 29 2 74 0 100 -2 26 -3 2 -3 -53z"/>
</g>
</svg>
